<?xml version="1.0" encoding="UTF-8"?>
<svg xmlns="http://www.w3.org/2000/svg" xmlns:xlink="http://www.w3.org/1999/xlink" width="48" height="48">
  <defs>
    <radialGradient xlink:href="#a" id="g" cx="336.738" cy="-72.42" r="297.213" fx="336.738" fy="-72.42" gradientTransform="matrix(.1365 0 -.00004 .07138 -23.398 12.31)" gradientUnits="userSpaceOnUse"/>
    <radialGradient xlink:href="#b" id="h" cx="420.878" cy="685.991" r="235.886" fx="420.878" fy="685.991" gradientTransform="matrix(.16353 -.01066 .01078 .16542 -46.182 -65.655)" gradientUnits="userSpaceOnUse"/>
    <radialGradient xlink:href="#b" id="i" cx="500.978" cy="286.469" r="40.975" fx="500.978" fy="286.469" gradientTransform="matrix(.2248 .01017 -.00976 .21567 -73.88 -54.898)" gradientUnits="userSpaceOnUse"/>
    <radialGradient xlink:href="#b" id="j" cx="293.82" cy="243.069" r="48.783" fx="293.82" fy="243.069" gradientTransform="matrix(.27296 -.07172 .05616 .21374 -78.547 -24.305)" gradientUnits="userSpaceOnUse"/>
    <radialGradient xlink:href="#c" id="k" cx="424.992" cy="270.68" r="38.452" fx="424.992" fy="270.68" gradientTransform="matrix(.08174 .01025 -.04336 .3458 6.123 -84.504)" gradientUnits="userSpaceOnUse"/>
    <radialGradient xlink:href="#b" id="l" cx="340.359" cy="409.837" r="103.26" fx="340.359" fy="409.837" gradientTransform="matrix(.10563 -.04514 .06693 .1566 -46.016 -24.355)" gradientUnits="userSpaceOnUse"/>
    <radialGradient xlink:href="#d" id="f" cx="29.899" cy="45.674" r="30.366" fx="29.899" fy="45.674" gradientTransform="matrix(1 0 0 .41539 0 26.701)" gradientUnits="userSpaceOnUse"/>
    <radialGradient xlink:href="#b" id="m" cx="131.237" cy="424.157" r="35.935" fx="131.237" fy="424.157" gradientTransform="matrix(.10195 -.04272 .09621 .2296 -48.672 -64.241)" gradientUnits="userSpaceOnUse"/>
    <radialGradient xlink:href="#e" id="n" cx="15.492" cy="10.943" r="18.37" fx="15.492" fy="10.943" gradientTransform="matrix(1.40266 0 0 1.11565 -6.238 .053)" gradientUnits="userSpaceOnUse"/>
    <linearGradient id="e">
      <stop offset="0" stop-color="#fff"/>
      <stop offset="1" stop-color="#fff" stop-opacity="0"/>
    </linearGradient>
    <linearGradient id="d">
      <stop offset="0"/>
      <stop offset=".5"/>
      <stop offset="1" stop-opacity="0"/>
    </linearGradient>
    <linearGradient id="c">
      <stop offset="0" stop-color="#c4a000"/>
      <stop offset="1" stop-color="#c4a000" stop-opacity="0"/>
    </linearGradient>
    <linearGradient id="b">
      <stop offset="0" stop-color="#fffef5" stop-opacity=".941"/>
      <stop offset="1" stop-color="#fce94f" stop-opacity="0"/>
    </linearGradient>
    <linearGradient id="a">
      <stop offset="0" stop-color="#fdf188"/>
      <stop offset="1" stop-color="#d3bc00"/>
    </linearGradient>
  </defs>
  <path fill="url(#f)" d="M60.264545 45.673546a30.365856 12.613509 0 1 1-60.7317119 0 30.365856 12.613509 0 1 1 60.7317119 0z" transform="matrix(.74253 0 -.05813 1.42861 4.5 -36.683)"/>
  <path fill="url(#g)" stroke="#c4a000" d="M23.152758 1.1801876c-2.77254.0388907-5.286938.7106893-7.518477 1.8394438-1.09275 2.15183-4.690581 4.7097341-6.1653326 4.9819247C6.5691703 11.460832 4.6887193 15.805035 3.9754523 19.98162c-.0004375.002563.0004366.005161 0 .007723-1.1863594 1.549717-1.6900108 3.396594-1.3773472 5.53256 1.1211744 7.659314 3.2821678 14.888292 8.1850959 16.556275 7.154429 2.433946 21.871769 1.785847 25.129507.458258 7.13903-2.909286 7.771453-9.285098 8.891432-16.780256.305554-2.044832-.144835-3.841202-1.230601-5.372942-.008956-.055602-.018487-.111474-.028319-.167342-.781254-4.438889-2.847361-8.889047-5.942638-12.3692025-2.093809-.2174335-6.139618-3.5763605-7.119424-5.223701-2.152652-.920977-4.521816-1.4428049-7.075526-1.4428049-.085321 0-.170037-.0011896-.254874 0z"/>
  <path fill="url(#h)" fill-rule="evenodd" d="M43.629688 22.792984c-4.596194 16.440233-33.191489 18.009753-39.8464115.249286-.0422083 16.324133 6.3201375 21.041619 24.4066785 20.205184 3.061977-.140689 10.00982.042867 14.614484-9.136776 2.238365-11.5104.825249-11.317694.825249-11.317694z" opacity=".667"/>
  <path fill="url(#i)" fill-rule="evenodd" d="m34.691565 7.6783057 2.500881 1.1253976S35.882042 18.926343 30.52343 25.288675c1.771665-6.455834 4.188975-17.6103693 4.168135-17.6103693z"/>
  <path fill="url(#j)" fill-rule="evenodd" d="M15.872437 4.1562328c1.50053 9.0656942 6.50229 19.4860282 6.002115 20.0070452-4.584948-6.981624-6.502291-12.921217-8.00282-17.9229779 0-.0833635 2.000705-2.0632267 2.000705-2.0840673z"/>
  <path fill="url(#k)" fill-rule="evenodd" d="M30.21082 3.8227818C26.126047 20.328594 25.959322 23.079563 25.959322 23.079563s6.335566-16.7559003 6.335566-17.1727135c0-8e-7-1.583891-1.5005286-2.084068-2.0840677z"/>
  <path fill="url(#l)" fill-rule="evenodd" d="m16.18209 34.476182-.044674-9.569745h14.493727l1.642604-1.263542H15.342282l.044674 10.640581.795134.192706z"/>
  <path fill="#958401" fill-rule="evenodd" d="m31.043495 24.81709.081681 9.804611.686144-.214742.011978-10.85341-.779803 1.263541z"/>
  <path fill="url(#m)" fill-rule="evenodd" d="M4.2551267 24.106065s2.3166503 8.115689 10.2209413 8.766037c1.105608 2.490418-1.13497 4.124601-1.13497 4.124601l-3.6095199-.251062s-6.2387745-7.992942-6.4882087-9.900882c-.2494325-1.907937.1632835-3.407793.1632835-3.407793l.8484738.669099z"/>
  <path fill="none" stroke="#fff" d="M23.184204 2.3889904c-2.613929.0366659-4.984483.6700322-7.08836 1.7342129-1.030236 2.0287281-4.422242 4.4402997-5.812626 4.6969188C7.5493302 12.0815 5.776456 16.17718 5.1039936 20.11483c-.0004124.002417.0004116.004866 0 .007282-1.1184901 1.46106-1.8584936 3.246475-1.5637169 5.260247 1.0570343 7.22114 2.9276025 13.709677 7.3279793 15.639454 5.923141 2.597582 21.539722 1.785935 24.611092.534295 6.73062-2.742852 7.061699-8.930694 8.117606-15.997069.288074-1.927851-.13655-3.621454-1.160201-5.065566-.008444-.052421-.017429-.105097-.026699-.157769-.73656-4.184949-2.684469-8.380522-5.602672-11.6615851-1.974026-.2049946-5.788382-3.3717641-6.712136-4.9248636-2.029503-.8682897-4.263131-1.3602649-6.670749-1.3602649-.08044 0-.160309-.0011215-.240293 0z" opacity=".744"/>
  <path fill="url(#n)" d="M22.59375 2.78125c-2.329557.1165682-4.440971.7250384-6.34375 1.6875-1.010725 1.9903059-4.354698 4.373241-5.71875 4.625-2.6821095 3.199611-4.4027734 7.199424-5.0625 11.0625-.0004046.00237.0004038.02888 0 .03125-1.0973069 1.43339-1.4580267 3.591148-1.4580267 3.591148 4.685267 3.605062 7.6416117.213892 14.3188727-2.01722 12.59928 1.923141 18.748338-.995945 22.514154-5.667678.006859-.008509-.003456-.020881 0-.03125-.991183-2.582834-2.432271-5.046113-4.28125-7.125-1.93664-.2011127-5.687492-3.2888148-6.59375-4.8125-1.991066-.8518453-4.16923-1.34375-6.53125-1.34375-.078916 1e-7-.171531-.0011003-.25 0-.200346.0028103-.39633-.0098787-.59375 0z" opacity=".594"/>
</svg>